<svg xmlns="http://www.w3.org/2000/svg" viewBox="0 0 48 48"><defs>
<style>.cls-1{fill:#201602;}</style></defs>
<title>Asset 19ldpi</title>
<g id="Layer_2" data-name="Layer 2"><g id="layer_1-2" data-name="layer 1">
<path class="cls-1" d="M10,11C7.24,11,5,8.31,5,5a4.68,4.68,0,0,1,5-5,4.68,4.68,0,0,1,5,5C15,8.31,12.76,11,10,11Zm0-9A2.72,2.72,0,0,0,7,5c0,2.21,1.35,4,3,4s3-1.79,3-4A2.72,2.72,0,0,0,10,2Z"/><rect class="cls-1" x="3" y="46" width="14" height="2"/>
<rect class="cls-1" x="4" y="26" width="2" height="21"/>
<rect class="cls-1" x="9" y="30" width="2" height="17"/>
<rect class="cls-1" x="9" y="21" width="2" height="2"/>
<rect class="cls-1" x="9" y="17" width="2" height="2"/>
<rect class="cls-1" x="9" y="13" width="2" height="2"/>
<rect class="cls-1" x="14" y="26" width="2" height="21"/>
<path class="cls-1" d="M5,29H3a3,3,0,0,1-3-3V14.58a5,5,0,0,1,4.45-5L9.89,9l.22,2-5.44.61a3,3,0,0,0-2.67,3V26a1,1,0,0,0,1,1H4V15H6V28A1,1,0,0,1,5,29Z"/>
<path class="cls-1" d="M17,29H15a1,1,0,0,1-1-1V15h2V27h1a1,1,0,0,0,1-1V14.58a3,3,0,0,0-2.67-3L9.89,11l.22-2,5.44.6a5,5,0,0,1,4.45,5V26A3,3,0,0,1,17,29Z"/>
<rect class="cls-1" x="5" y="25" width="10" height="2"/>
<path class="cls-1" d="M24,48a24,24,0,0,1-6.26-.83l.52-1.93A21.7,21.7,0,0,0,24,46,22,22,0,1,0,16.35,3.37l-.7-1.88A24,24,0,1,1,24,48Z"/>
<path class="cls-1" d="M24,48V46c6.23,0,11.5-10.08,11.5-22S30.23,2,24,2V0c7.57,0,13.5,10.54,13.5,24S31.57,48,24,48Z"/>
<rect class="cls-1" x="23" y="1" width="2" height="46"/><rect class="cls-1" x="21" y="23" width="26" height="2"/>
<rect class="cls-1" x="21" y="12" width="23" height="2"/>
<rect class="cls-1" x="17" y="34" width="27" height="2"/></g></g>
</svg>